/* XPM */
static char * biffno_xpm[] = {
"46 38 8 1",
" 	s None	c None",
".	c #808080",
"X	c #ffffe3",
"o	c #000000",
"O	c #f81440",
"+	c #3c3c3c",
"@	c #3c3c3c",
"#	c #808080",
"      .................................       ",
"    ..XXXXX.XXXXXXXXXXXXXXXXXXXXXXXXXXX..     ",
"   .XXXXXXXXX.XXXXXXXXXXXXXXXXXXXXXXXXXX..    ",
"  ..XXXXXXXXXX.XXXXXXXXXXXXXXXXXXXXXXXXXXX..  ",
"  .XXXXXXXXXXXX.XXXXXXXXXXXXXXXXXXXXXXXXXXX.  ",
" ..XXXXXXXXXXXX.XXXXXXXXXXXXXXXXXXXXXXXXXXX.. ",
" .XXXXXXXXXXXXXX.XXXXXXXXXXXXXXXXXXXXXXXXXXX. ",
"..XXXXXXXXXXXXXX.XXXXXXXXXXXXXXXXXXXXXXXXXXX..",
".XXXXXXXXXXXXXXXX.XXXXXXXXXXXXXXXXXXXXXXXXXXX.",
".XXXXXXXXXXXXXXXX.XXXXXXXXXXXXXXXXXXXXXXXXXXX.",
".XXXXXXXXXXXXXXXX.XXXXXXXXXXXXXXXXXXXXXXXXXXX.",
".XXXXXXXXXXXXXXXX.XXXXXXXXXXXXXXXXXXXXXXXXXXX.",
".XXXXXXXXXXXXXXXXX.XXXXXXXXXXXXXXXXXXXXXXXXXX.",
".XXXXXXXXXXXXXXXXX.XXXXXXXXXXXXXXXXXXXXXXXXXX.",
".XXXXXXXXXXXXXXXXX.XXXXXXXXXXXXXXXXXXXXXoooooo",
".XXXXXXXXXXXXXXXXX.XXXXXXXXXXXXXXXooooooooooOo",
".XXXXXXXXXXXXXXXXX.XXXXXXXXooooooooooooooOOOOo",
".XXXXXXXXXXXXXXXXX.XXXoooooooooooooooXXoOOOOOo",
".XXXXXXXXXXXXXXXXX.XXoooooooooooo......oOOOOOo",
".XXXXXXXXXXXXXXXXX.XXoooooooo..........oOOOOOo",
".XXXXXXXXXXXXXXXXX.XXXoooX.......XXXX..oOOOOOo",
".XXXXXXXXXXXXXXXXX.XXXXX....XXXXXXXXX..oOOOOOo",
".XXXXXXXXXXXXXXXXX.XXXXXXXXXXXXXXXXXX..oOOOOOo",
".XXXXXXXXXXXXXXXXX.XXXXXXXXXXXXXXXXXX..oOOOOOo",
".XXXXXXXXXXXXXXXXX.XXXXXXXXXXXXXXXXXX..oOOOOOo",
".XXXXXXXXXXXXXXXXX.XXXXXXXXXXXXXXXXXX..oOOOOOo",
"..XXXXXXXXXXXXXXXX.XXXXXXXXXXXXXXXXXX..oOOOOOo",
"  ...XXXXXXXXXXXXX.XXXXXXXXXXXXXXX...  oOOOOOo",
"     ...XXXXXXXXXX.XXXXXXXXXXX....     oOOOoo ",
"        ..XXXXXXXX.XXXXXXXX...         oOOo   ",
"          ...XXXXX.XXXXX...++.         ooo    ",
"             ...XX.X....+++++.         o      ",
"                ...@+++++++++.                ",
"                 .@@@@+++++++.                ",
"                 @@@@@++++###.                ",
"                 @@@@@+######.                ",
"                 @@@@@#######.                ",
"                 @@@@@#######.                "};
