/* XPM */
static char * biffnew_xpm[] = {
"46 38 10 1",
" 	s None	c None",
".	c #3c3c3c",
"X	c #808080",
"o	c #f81440",
"O	c #3c3c3c",
"+	c #7fff00",
"@	c #c0c0c0",
"#	c #3c3c3c",
"$	c #ffffff",
"%	c #808080",
"            .......XXXXXXXXX.ooooooooooooXXXXX",
"           ..OOOOO..++++++++.oooooooooooo+++++",
"          ..OOOOOOO..+++++++.oooooooooooo+++++",
"         .OOOOOOOOOOO.++++++.oooooooooooo+++++",
"         .XXXOOOOOOOOO.++@@@.oooooooooooo+++++",
"        .XXXXXOOOOOOOOO++@@@.ooooooooooo.+++++",
"        .XXXXXXOOOOOOOO.++@@.ooooooooo..++++++",
"       .XXXXXXXOOOOOOOOO++@@.ooooooo..@@@+++++",
"       .XXXXXXXXOOOOOOOO.+@@.ooooo..@@@@@+++++",
"       .XXXXXXXXOOOOOOOO.+@@.ooo..@@@@++++++++",
"       .XXXXXXXXOOOOOOOO.++@.oo.@@@@++++++++++",
"       .XXXXXXXXXOOOOOOO.++@.oo@@@++++++++++++",
"       .XXXXXXXXXOOOOOO##.+@.oo@++++++++++++++",
"       .XXXXXXXXOOO####$$.+@.oo+++++++++++++++",
"       .XXXXXXX####$$$$$$.+@.oo+++++++++++++++",
"       .XXX####$$$$$$$$$$.+@.oo+++++++++++++++",
"       ####$$$$$$$$$$$$$$.+@.oo+++++++++++++++",
"   ####$$$$$$$$$$$$$$$$$$.+@.oo+++++++++++++++",
" ##$$$$$$$$$$$$$$$$$$$$$$.+@.oo+++++++++++++++",
"  #####$$$$$$$$$$$$$$$$$$.+@.oo+++++++++++++++",
"   #$$$#######$$$$$$$$$$$.+@.oo+++++++++++++++",
"    #$$$$$$$$$#######$$$$.@..ooo++++++++++++++",
"     ##$$$$$$$$$$$$$$####.@.ooooo+++++++++++++",
"       #$$$$$$$$$$$$$$$$$.+.ooooo+++++++++++++",
"       .#$$$$$$$$$$$$$$$$.+.ooooo+++++++++++++",
"       .O#$$$$$$$$$$$$$$$.+..oooo+++++++++++++",
"      ...O#$$$$$$$$$$$$$$.++..oo+++++++++++XXX",
"     .++...#$$$$$$$$$$$$$.+++++++++++++++XXX  ",
"    ..++++++#$$$$$$$$$$$$.++++++++++++XXX     ",
"   ..++++++++#$$$$$$$$$$$.+++++++++XXX        ",
"  .+++++++++++##$$$$$$$$$.++++++XXX.X         ",
"...+++++++++++++#$$$$$$$#.+++XXX....X         ",
".++++++++++++++++#$$$$##X.XXXX......X         ",
"++++++++++++++++++#$##+++.XOO.......X         ",
"+++++++++++++++++++#++++..OOO....%%%X         ",
"++++++++++++++++++++++...OOOO.%%%%%%X         ",
"+++++++++++++++++++++.. OOOOO%%%%%%%X         ",
"++++++++++++++++++++..  OOOOO%%%%%%%X         "};
