/* XPM */
static char * calc_xpm[] = {
/*tan*/
"49 38 10 1",
/**/
" 	s None	c None",
".	c #3c3c3c",
"X	c white",
"o	c black",
"O	c #c0c0c0",
"+	c #ffffe3",
"@	c #808080",
"#	c #7fff00",
"$	c #000055",
"%	c #0000ff",
/**/
"                          ..........             ",
"                        ...XXXXXXXXXo            ",
"                       ..XXXXXXXXXXooo           ",
"                      ..XXXXXXXXXooXXo           ",
"                      .XXXXXXXXXoXX Xo           ",
"                     O.XXXXXXXXo .....           ",
"                    O+.XXXXXXXo@    ..           ",
"                   O+O....XXXXo+@@@@@@           ",
"                 OOOO...#.......++++++@@@@@      ",
"                O+O....#..####......+++++++@@    ",
"               O+O....#.....##..###.....+++++@@  ",
"               OO....#....##.......#.......++OO@ ",
"               OO...#..###......###........+OOO@ ",
"              O++++......##......#........++OOO@ ",
"              O++++++++......##..#.......++OOOO@ ",
"             O++++++++++++++...##.......++OOOOO@ ",
"             O++++++++++++++++.........++OOOOOO@ ",
"            O+++++$$$+++++++++++++....+++OOOOOO@ ",
"            O++++$+++$++++++++%%%++++++++OOOOO@  ",
"           O++++$+++$@+++$$$++++%%%%++++OOOOOO@  ",
"          O++++++$$$@+++$+++$++++++%%++OOOOOO@   ",
"         O++++$$$++++++$+++$@++$$$++++OOOOOO@    ",
"        O++++$+++$++++++$$$@++$+++$++OOOOOO@     ",
"       O++++$+++$@+++$$$+++++$+++$@+OOOOO@@      ",
"      O++++++$$$@+++$+++$+++++$$$@+OOOOO@        ",
"     O++++$$$++++++$+++$@+++++++++OOOOO@         ",
"    O++++$+++$++++++$$$@++$$$++++OOOOO@          ",
"    O+++$+++$@+++$$$+++++$+++$+++OOOO@           ",
"    O++++$$$@+++$+++$+++$@+++$++OOOO@            ",
"    OOOO+++++++$+++$@++$@@@@$@+OOOO@             ",
"    @+++OOO+++++$$$@++$++@@$@+OOOO@              ",
"     @@@+++OOO+++++++$++++$@+OOOO@               ",
"        @@@+++OOO++++@$$$$@+OOO@@                ",
"           @@@+++OOO++@@@@+OOO@                  ",
"              @@@+++OOO+++OOO@                   ",
"                 @@@@++OOOOO@                    ",
"                     @@@+OO@                     ",
"                        @@@                      "};
