/* XPM */
static char * client_xpm[] = {
"11 11 3 1",
" 	s None	c None",
".	c #cf9a30",
"X	c #843c24",
"  ........ ",
" .........X",
"..XXXXXX..X",
"..X     XXX",
"..X        ",
"..X        ",
"..X        ",
"..X     .. ",
"..........X",
" .........X",
"  XXXXXXXXX"};
