/* XPM */
static char * dimple_xpm[] = {
"10 10 3 1",
" 	c none",
".	c #747474",
"X	c #b4b4b4",
" X      . ",
"X        X",
"          ",
"    ..    ",
"   .  X   ",
"   .  X   ",
"    XX    ",
"          ",
".        .",
" X      . "};
