/* XPM */
static char * exec_xpm[] = {
"11 11 3 1",
" 	c #cf9a30",
".	c #843c24",
"X	s None	c None",
"    .X    .",
"..  .X  ...",
"XX. .X .XXX",
"XX.    .XXX",
"XXX.  .XXXX",
"XXXX  .XXXX",
"XXX    .XXX",
"XX  ..  .XX",
"XX  .X  .XX",
"    .X    .",
".....X....."};
