/* XPM */
static char * ical_xpm[] = {
/* width height num_colors chars_per_pixel */
"38 35 4 1",
/* colors */
" 	s None	c None",
".	c #000000",
"X	c #ffffe3",
"o	c #f81440",
/* pixels */
"                ...                   ",
"   .   .   .   ..X..    .   .   .     ",
"  . . . . . .  .XXX.   . . . . . .    ",
"................XXX.................  ",
".X.XXX.XXX.XX.XXXXXXX.X.XXX.XXX.XXX.. ",
".X..XX..XX..X.........X..XX..XX..XX.X.",
".XXXXXXXXXXXXXXXXXXXXXXXXXXXXXXXXXX.X.",
".XXXXXXXXXXXXXXXXXXXXXXXXXXXXXXXXXX.X.",
".XXXXXXXXXXXXXXXXXXXXXXXXXXXXXXXXXX.X.",
".XXXXXXXXXXXXXXXXXXXXXXXXXXXXXXXXXX.X.",
".XXXXXXXXooooXX....XX....XX...XXXXX.X.",
".XXXXXXXXXXXXXXXXXXXXXXXXXXXXXXXXXX.X.",
".XXXXXXXXXXXXXXXXXXXXXXXXXXXXXXXXXX.X.",
".XXXXXXXXXXXXXXXXXXXXXXXXXXXXXXXXXX.X.",
".XXXX..XXXXXoXXXXX.XXX..XXXX.XXXXXX.X.",
".XXXX..XXXXoXXXXX..XXXX.XXXXX.XXXXX.X.",
".XXXXXXXXXXXXXXXXXXXXXXXXXXXXXXXXXX.X.",
".XXXX..XXXXoXXXXXXXXXXXXXXXX..XXXXX.X.",
".XXXX..XXXXooXXXX..XXX...XXXX.XXXXX.X.",
".XXXXXXXXXXXXXXXXXXXXXXXXXXXXXXXXXX.X.",
".XXXX..XXXXooXXXX.XXXXXXXXXX.XXXXXX.X.",
".XXXX..XXXXoXXXXX..XXX..XXXX.XXXXXX.X.",
".XXXXXXXXXXXXXXXXXXXXXXXXXXXXXXXXXX.X.",
".XXXX..XXXXoXXXXX..XXXX.XXXX..XXXXX.X.",
".XXXX..XXXXXoXXXXX.XXX.XXXXXX.XXXXX.X.",
".XXXXXXXXXXXXXXXXXXXXXXXXXXXXXXXXXX.X.",
".XXXX..XXXXoXXXXX..XXX..XXXX.XXXXXX.X.",
".XXXX..XXXXoXXXXX.XXXXX.XXXX..XXXXX.X.",
".XXXXXXXXXXXXXXXXXXXXXXXXXXXXXXXXXX.X.",
".XXXXXXXXXXXXXXXXXXXXXXXXXXXXXXXXXX.X.",
".XXXXXXXXXXXXXXXXXXXXXXXXXXXXXXXXXX.X.",
".XXXXXXXXXXXXXXXXXXXXXXXXXXXXXXXXXX.X.",
"....................................X.",
" .XXXXXXXXXXXXXXXXXXXXXXXXXXXXXXXXXXX.",
"  ...................................."};
