/* XPM */
static char * iconic_xpm[] = {
/*4o+@4o+@rkcrim/TKGsrc/icons/iconic.xpm*/
"16 16 3 1",
/*4¸	¬
*/
" 	s None	c None",
".	c #843c24",
"X	c #87ceff",
/*¼n+@¼n+@*/
"                ",
"                ",
"                ",
"                ",
"                ",
"     ....       ",
"     .XX.       ",
"     .XX.       ",
"     ....       ",
"                ",
"                ",
"                ",
"                ",
"                ",
"                ",
"                "};
