/* XPM */
static char * jots_sm_xpm[] = {
/* width height num_colors chars_per_pixel */
"24 24 9 1",
/* colors */
" 	c #808080",
".	c #3c3c3c",
"X	c #ffffe3",
"o	c #c0c0c0",
"O	c #f81440",
"+	c #00aa00",
"@	c #ffcf30",
"#	c #cf9a30",
"$	s None	c None",
/* pixels */
"                        ",
"  ..................... ",
"  ..................... ",
"                        ",
"  XXXXXXXXXXXXXXXXXXXXX ",
"  XXXXXXXXXXXXXoOoXXXXX ",
"  XXXXXXXXXXXXX OOOXXXX ",
"  XXXXXXXXXXXXo  OOoXXX ",
"  XXXXXXXXXXXo++  OOXXX ",
"  XXXXXXXXXXo@@++ oXXXX ",
"  XXXXXXXXo@@@@#ooXXXXX ",
"  XXXXXXXX@@@@@ooXXXXXX ",
"  XXXXXXXo@@@@#oXXXXXXX ",
"  XXXXXXo@@@@#oXXXXXXXX ",
"  XXXXXo@@@@#ooXXXXXXXX ",
"  XXXo@@@@@#XXXXXXXXXXX ",
"  XXX@@@@@#oXXXXXXXXXXX ",
"  XXX #@@#ooooXXXXXXXXX ",
"  XXX. ##ooooooXXXXXXXX ",
"  XXX.. oooooooooXX     ",
"  XXXXXXXXXXXXXXXXX ... ",
"  XXXXXXXXXXXXXXXXX .. $",
"  XXXXXXXXXXXXXXXXX . $$",
"                     $$$"};
