/* XPM */
static char * jots_xpm[] = {
/* width height num_colors chars_per_pixel */
"29 29 9 1",
/* colors */
" 	c #808080",
".	c #3c3c3c",
"X	c #ffffe3",
"o	c #c0c0c0",
"O	c #f81440",
"+	c #00aa00",
"@	c #cf9a30",
"#	c #ffcf30",
"$	s None	c None",
/* pixels */
"                             ",
"  .........................  ",
"  .........................  ",
"                             ",
"  XXXXXXXXXXXXXXXXXXXXXXXXX  ",
"  XXXXXXXXXXXXXXXXXXXXXXXXX  ",
"  XXXXXXXXXXXXXXXXoOoXXXXXX  ",
"  XXXXXXXXXXXXXXXo OOOXXXXX  ",
"  XXXXXXXXXXXXXXo+  OOoXXXX  ",
"  XXXXXXXXXXXXXo ++  OOXXXX  ",
"  XXXXXXXXXXXXo@@+++ oXXXXX  ",
"  XXXXXXXXXXXo@@##+++XXXXXX  ",
"  XXXXXXXXXXo@@@##@ooXXXXXX  ",
"  XXXXXXXXXo@@###@ooXXXXXXX  ",
"  XXXXXXXXo@@@##@ooXXXXXXXX  ",
"  XXXXXXXo@@###@ooXXXXXXXXX  ",
"  XXXXXXo@@@##@ooXXXXXXXXXX  ",
"  XXXXXo@@###@ooXXXXXXXXXXX  ",
"  XXXXo@@@##@oXXXXXXXXXXXXX  ",
"  XXXo@@###@ooXXXXXXXXXXXXX  ",
"  XXX  @#@@oooooXXXXXXXXXXX  ",
"  XXX . @@@oooooooXXXXXXXXX  ",
"  XXX .. @ooooooooooXX       ",
"  XXX    ooooooooooooX   ..  ",
"  XXXXXXXXXXXXXXXXXXXX  ... $",
"  XXXXXXXXXXXXXXXXXXXX ... $$",
"  XXXXXXXXXXXXXXXXXXXX .. $$$",
"                         $$$$",
"                        $$$$$"};
