/* XPM */
static char * manreader_xpm[] = {
/* width height num_colors chars_per_pixel */
"16 16 5 1",
/* colors */
" 	s None	c None",
".	c #3c3c3c",
"X	c white",
"o	c #cf9a30",
"O	c #808080",
/* pixels */
"                ",
"                ",
"    ...         ",
"   .X  .        ",
"  .XX   .       ",
"  .XX   .       ",
"  .X    .       ",
"  .     .       ",
"  .    .oO      ",
"   ......oO     ",
"        O.oO    ",
"         O.oO   ",
"          O.o   ",
"                ",
"                ",
"                "};
