/* XPM */
static char * menu_xpm[] = {
"11 11 3 1",
" 	c #cf9a30",
".	c #843c24",
"X	s None	c None",
"   .XXX   .",
".   .X   ..",
"X        .X",
"X  .  .  .X",
"X  .  .  .X",
"X  .  .  .X",
"X  ....  .X",
"X  .XXX  .X",
"X  .XXX  .X",
"    .X    .",
".....X....."};
