/* XPM */
static char * netdn_xpm[] = {
"46 38 3 1",
" 	s None	c None",
".	c #000000",
"X	c #808080",
"                                              ",
"                                              ",
"                                              ",
"                                              ",
"                                              ",
"                                              ",
"                                              ",
"                                              ",
"                                              ",
"                                              ",
"                                              ",
"                                              ",
"                                              ",
"                                              ",
"                                              ",
"                                              ",
"                                              ",
"                                              ",
"                                 .      .    .",
"             .    X.      .     X.      .    .",
"  X         X.    .      X.     .       .    .",
"  .X        .  ...............................",
"   ............XX.XX     .     .       X.   X.",
"           X.   X.      X.    .X      X.    . ",
"          X.   X.      X.     .      X.     . ",
" ..      X.   X.      X.      .      .     X. ",
"  ....X X.   X.      X.      X.      .    X.  ",
"      ........X     X.       .      X.    .   ",
"     X.     X................................ ",
"    X.      .      X.       .       .    .    ",
".....      .X      .      X.     XX.X   .X    ",
"   .X.    .X      X.     X.     X..     .     ",
"  .  X.  .X      X.     X.     X.      .X     ",
" .     .X.      X.      .     X.      X.      ",
".X      ........X      .X    X.  X........X   ",
".       .      X..................  .     ..  ",
".       .     X.       .     .      .         ",
".       .     .        .     .      .         "};
