/* XPM */
static char * netdn_sm_xpm[] = {
/* width height num_colors chars_per_pixel */
"24 18 2 1",
/* colors */
" 	s None	c None",
".	c black",
/* pixels */
"                        ",
"                        ",
"                        ",
"                        ",
"                        ",
"                        ",
"                        ",
" .......  .  .  .  .    ",
"    .  ..........  .    ",
"   .   .  .  .  ....... ",
" ......   .  .   .  .   ",
"  .   ............   .  ",
"  .   .   .  .   .......",
"............  .  .   .  ",
" .    .   . ............",
"......    .   .   .   . ",
".    ...........  .    .",
".    .    .   . ...... ."};
