/* XPM */
static char *nscape02[] = {
/* width height num_colors chars_per_pixel */
"    32    32        6            1",
/* colors */
". c #000000",
"# c #0000aa",
"a c #c0c0c0",
"b c #808080",
"c c #0000ff",
"d c #ffffff",
/* pixels */
"................................",
"................................",
"..#.#.#.#.#.#.#.#.#.#.#.#.#.#.#.",
"................................",
".##.##.##.##.##.##.##.##.##.##..",
"...#..#..#..#..#..#..#..#..#..#.",
".##.##.##.##.##.##.##.##.##.##..",
".#.#.#.aaaa#.#.#.#.#baaaab.#.#..",
".##.###.#ddd###.###.##dd###.###.",
"..##.###.bddd###.###.#ab.###.##.",
".#####.##bdddd.###.###ab##.###..",
".##.#####babddb#######ab#######.",
".########ba#bddb######ab#######.",
".########ba##addb#####ab#######.",
".########ba###addb####ab#######.",
".########ba####ddd####ab#######.",
".########ba#####ddd###ab#######.",
".########ba######ddd##ab#######.",
".#c##c##cbac##c##cddd#ab##c##c#.",
".c##c##c#ba##c##c#bddaab#c##c##.",
".##c##cbbadaddddddddaaaabbbc##c.",
".cbbadaabaa...........bbaaaaabb.",
".aab.....bd..................ba.",
".......bdddda...................",
"................................",
"................................",
"................................",
"................................",
"................................",
"................................",
"................................",
"................................"
};
