/* XPM */
static char * netup_xpm[] = {
"46 38 5 1",
" 	s None	c None",
".	c #808080",
"X	c #000000",
"o	c #7fff00",
"O	c #808080",
"                                              ",
"                       .                      ",
"                      ..X                     ",
"                     ..oXO                    ",
"                    ..oooXO                   ",
"                    .oooooXO                  ",
"                   .oooooooX                  ",
"                  ..oooooooXO                 ",
"                 ..oooooooooXO                ",
"                ..oooooooooooXO               ",
"              ...oooooooooooooXXO             ",
"            ...oooooooooooooooooXO            ",
"           ..oooooooooooooooooooooXO          ",
"           .oooooooooooooooooooooooX          ",
"          ..ooo...oooooooooooXXXoooXO         ",
"          ..o... ..oooooooooXX OXXoXO         ",
"          ....   ..oooooooooXX   OXXO         ",
"                 ..oooooooooXX                ",
"                 ..oooooooooXX                ",
"                 ..oooooooooXX                ",
"                 ..oooooooooXX                ",
"         OXXXXXXX..oooooooooXX                ",
"        XXO   X  ..oooooooooXXXXXXXXXX        ",
"      OX X   OX  ..oooooooooXX   XO  OXXO     ",
"   OXXXXXX   X   ..oooooooooXX    XO OX XXO   ",
"  OX    OX  OX   ..oooooooooXXO    XOX    XXO ",
"  X    OXXO X    ..oooooooooXXXO  XXX       X ",
"  XO  OX  XXX    ..oooooooooXX XXXO OXX    OXO",
" XXX  X     XXXXXXXXXXXXXXXXXXXXXX    OXO  X X",
" O OXXX     X    ..XooXoooooXX   XO     XXXX X",
" X  OX     XO    .XoooXoooooXX    XO     OX  X",
"OX  XXO    X    ..XoooXoooooXX     XO   OXX  X",
"X   X XO   X    ..XoooXoooooXX      X OXX OX X",
"X  X   XO X    ..XXoooXooooooXX     OXX    OX ",
"X OX    XXXXX  ..XooooXoooooooXXXXXXXX      OX",
"XOX      X  XXXXXXXXXXXXXOOooXXX     X       X",
"XX      OX    ..XoooooXooXXXXXXX     X       X",
"XO      X    ..oXoooooXooooooooXX    X       X"};
