/* XPM */
static char * netwt_xpm[] = {
"46 38 4 1",
" 	s None	c None",
".	c #808080",
"X	c #000000",
"o	c #7fff00",
"                                              ",
"                                              ",
"                                              ",
"                                              ",
"                                              ",
"                                              ",
"                                              ",
"                                              ",
"                                              ",
"                                              ",
"                                              ",
"                                              ",
"                                              ",
"                                              ",
"                                              ",
"                                              ",
"                                              ",
"                                              ",
"                                              ",
"                                              ",
"                                              ",
"                       .XXXXXXXXXXX.          ",
"        .XXXXXXXXXXXXXXX..X... X   XXX.       ",
"     .XXX  .X    X  .X X  X    X.   X X.      ",
"   .XX .X .X    .X  X  X  X     X   .XXXXX.   ",
" .XX    .XX    .X   X  X  X     X.  .X    X.  ",
" X       X.X  .X   .X oXXXX      X XXX.    X  ",
".X.   .XX. XXXX    XoooXooX      XX.  X.  .X  ",
"X X  .X     .XXXXXXXXXXXXXXXXXXXXX     X  XX. ",
"X.XX.X      X    .XooooXooX      X     X.XX X ",
"X  .X      X.    XoooooXoooX     X.     X.  X ",
"X .X.X    X.     XoooooXoooX      X    .X.  X.",
"X X  .XX X.     XXoooooXoooX      X    X X   X",
" X.    .X.     XXooooooXoooX.      X .X  .X  X",
"X.      XXXXXXXXoooooooXooooXoooXXXXXX    .X X",
"X       X    oXXXooXXXXXXXXXXXXXX   X      .XX",
"X       X   ooXXXXXXXooXoooooXooo   X.      .X",
"X       X oooXXooooooooXoooooXoooo   X      .X"};
