/* XPM */
static char *newspap[] = {
/* width height num_colors chars_per_pixel */
"    34    28        4            1",
/* colors */
". c #000000",
"# c none",
"a c #808080",
"b c #ffffff",
/* pixels */
"##################################",
"#############...##################",
"############.bbb..################",
"###########.bb.bbb..##############",
"##########.bb..b.bbb..############",
"#########.bb.b..bb.abb..##########",
"########.bb.bb.bb.ba.bbb..########",
"#######.b#bbb.bb.#.bb.bbbb..######",
"######.bba.abbb.abbb.bababbb..####",
"#####.b#bbba.#bb#.b.baab.b.abb..##",
"####.bba.abbb#.abbb...b.b.ba.bbb.#",
"###.b#bbba.#bbba.abbb..bbb.bbbb.##",
"##.bba.abbb#.abbb#b.bbb.ab.bbb.#.#",
"#.a#bbba.#bbba.abb.b..bba.bbb.#.##",
"#.ba.abbb#.abbb#b.#bbb..bbbb.#.#.#",
"#.bbba.#bbba.abb.####bbb.bb.#.#.##",
"#.#.abb#.abbb#b.aaa####.bb.#.#.#.#",
"#.a##.abba.abbb..aaaa#.bb.#.#.#.##",
"##..a###abba##bbb..aa.bb.#.#.#.###",
"####..a##.abb#.abbb..bb.#.#.#.####",
"######..a##.abba.abbbb.#.#.#.#####",
"########..a#b#abba.bb.#.#.#.######",
"##########..a#a.abbb.#.#.#.#######",
"############..a##.b.#.#.#.########",
"##############..a##.#..#.#########",
"################..a.a##.##########",
"##################.....###########",
"##################################"
};
