/* XPM */
static char * panel_xpm[] = {
"11 11 2 1",
" 	c #843c24",
".	c #cf9a30",
" .. ... .. ",
" .. ... .. ",
" .. ... .. ",
" .. ... .. ",
" .. ... .. ",
" .. ... .. ",
" .. ... .. ",
" .. ... .. ",
" .. ... .. ",
" .. ... .. ",
" .. ... .. "};
