/* XPM */
static char * run_xpm[] = {
"11 11 3 1",
" 	s None	c None",
".	c #cf9a30",
"X	c #843c24",
"    ...X   ",
"    ...X   ",
"    ..XX.X ",
"    X.X .X ",
"  ......X  ",
"  .X..XX   ",
"  XX..X    ",
"    ....X  ",
"    .XX.X  ",
" ...XX .X  ",
" XXXX  XX  "};
