/* XPM */
static char * stack_xpm[] = {
"11 11 2 1",
" 	c #843c24",
".	s None	c None",
"        ...",
"        ...",
"...........",
"...        ",
"...        ",
"...........",
"        ...",
"        ...",
"...........",
".        ..",
".        .."};
