/* XPM */
static char * swallow_xpm[] = {
"11 11 2 1",
" 	s None	c None",
".	c #843c24",
"   .....   ",
" ..     .. ",
" .  ...  . ",
".  .   .  .",
". .  .  . .",
". . . . . .",
". .  .  . .",
".  .   .  .",
" .  ...  . ",
" ..     .. ",
"   .....   "};
