/* XPM */
static char * tcl_xpm[] = {
"11 11 3 1",
" 	c #cf9a30",
".	c #843c24",
"X	s None	c None",
"          .",
"          .",
" ...  ... .",
"..XX  .XX..",
"XXXX  .XXXX",
"XXXX  .XXXX",
"XXXX  .XXXX",
"XXXX  .XXXX",
"XXXX  .XXXX",
"XXX    .XXX",
"XXX.....XXX"};
