/* XPM */
static char * telnet_xpm[] = {
"46 38 6 1",
" 	s None	c None",
".	c #000000",
"X	c #ffffe3",
"o	c #3c3c3c",
"O	c #7fff00",
"+	c #808080",
"                                              ",
"                                              ",
"                   .......................    ",
"                  .XXXXXXXXXXXXXXXXXXXXXX..   ",
"                 .XXXXXXXXXXXXXXXXXXXXXX.X.   ",
"                .XXXXXXXXXXXXXXXXXXXXXX.XX.   ",
"               ......................X.XXX.   ",
"              .........................XXX.   ",
"             ...oooooooooooooooooooo...XXX.   ",
"             ..oooooooooooooooooooooo..XXX.   ",
"             ..ooOOOOOOOOOOOooooooooo..XXX.   ",
"             ..oooooooooooooooooooooo..XXX.   ",
"             ..ooOOOOOOOOOOOOOOOOoooo..XXX.   ",
"             ..oooooooooooooooooooooo..XXX.   ",
"             ..ooOOOooooooooooooooooo..XXX.   ",
"             ..oooooooooooooooooooooo..XXX.   ",
"             ..ooOOOOOOOOoOOooOoooooo..XXX.   ",
"             ..oooooooooooooooooooooo..XXX.   ",
"             ..ooOOOOOOOOOooooooooooo..XXX.   ",
"             ..oooooooooooooooooooooo..XXX.   ",
"             ..ooOOOOooooOOOoooOOOOoo..XX.    ",
"             ..oooooooooooooooooooooo..X..    ",
"             ..ooOooooooooooooooooooo...      ",
"             ...oooooooooooooooooooo... .     ",
"             ......................... X.     ",
"            .XX...................... XX.     ",
"           .XXXXXXXXXXXXXXXXXXXXXXXXXXXX.     ",
"          .XXXXXXXXXXXXXXXXXXXXXXXXXXXX.      ",
"          .XXX.....XXXXXXXX.....XXXXXX.       ",
"          .XXXXXXXXXXXXXXXXXXXXXXXXXX.        ",
"      ...............................         ",
"     .+X+X+X+X+X+X+X+X+X+X+X+X+XXX.           ",
"    .XXXXXXXXXXXXXXXXXXXXXXXXXXXX.            ",
"   .XX+X+X+X+X+X+X+X+X+X+X+X+X+X.             ",
"  .XXXXXXXXXXXXXXXXXXXXXXXXXXXX.              ",
" .XXXXXXXXXXXXXXXXXXXXXXXXXXXX.               ",
" .............................                ",
"                                              "};
