/* XPM */
static char * tk_xpm[] = {
/* width height num_colors chars_per_pixel */
"16 16 3 1",
/* colors */
" 	s None	c None",
".	c #c0c0c0",
"X	c #ffffe3",
/* pixels */
"                ",
"                ",
" .......     .  ",
".X.X.X.X.   .X  ",
"...     .  ..   ",
"X      .  .X    ",
" .    .   . ..  ",
"     .X  X . X  ",
"     .   .. .   ",
"    .X  .X.X .  ",
"    .   .... .  ",
"   X.   X  .X   ",
"   .            ",
"                ",
"                ",
"                "};
