/* XPM */
static char * test_xpm[] = {
"48 32 2 1",
" 	c #87ceff",
".	c none",
"               ..      ...      ......      ....",
"               ..      ...      ....         ...",
"               ..      ..      ....           ..",
"               ..      ..      ....           ..",
"               ..      ..      ....            .",
"               ..      ..     ....      ...    .",
"               ..      .      ....     .....    ",
"  ..       ..  ..      .      ...      .....    ",
"....       ......      .     ....      .....    ",
"....       ......      .     ....     ..........",
"....       ......            ....     ..........",
"....       ......           .....     ..........",
"....       ......           .....     ..........",
"....       ......           .....     ..........",
"....       ......           .....     ..........",
"....       ......           .....     ..........",
"....       ......           .....     ..........",
"....       ......           .....     ..........",
"....       ......           .....     ...       ",
"....       ......           .....     ...       ",
"....       ......            ....     ...       ",
"....       ......      .     ....     ...       ",
"....       ......      .     ....     ...       ",
"....       ......      .      ....     ....    .",
"....       ......      ..     ....     ....    .",
"....       ......      ..     ....      ...    .",
"....       ......      ..     .....            .",
"....       ......      ..      ....            .",
"....       ......      ...     ....           ..",
"....       ......      ...      .....         ..",
"...         .....      ....      ....        ...",
"..           ....        ...      ....      ...."};
