/* XPM */
static char * tkman_xpm[] = {
/*****************************************************************************/
"64 38 7 1",
/**/
" 	s None	c None",
".	c black",
"X	c #7fff00",
"o	c #ffffe3",
"O	c #808080",
"+	c #c0c0c0",
"@	c #ce0000",
/*Sè*/
"                          ........                              ",
"                        ..XXXXXXXX.         ..                  ",
"                       .XXXXXXXXXXX.      ...o.                 ",
"                      ..XXXXXXXXXXXX.......ooo..                ",
"     ..          ......XXXXX....XXXXX.ooooooooo.                ",
"     ..       ....ooo.XXXXX.oooo.XXXXX.oooooOOoo.               ",
"     .o..    ..oooooo.XXXXX.oooo.XXXXX.OOOOOOooo.               ",
"   ...oo......ooooooo.XXXXX.oOOo.XXXXX.Oooooooooo.              ",
"   ...ooooooooooooooo.XXXXX.oooo.XXXXX.ooooooOOoo..             ",
"   .+.ooooooooooOOOoo........ooo.XXXXX.ooOOOOOoooo.             ",
" ......oooooooOOOooooooooooo..o.XXXXX.oOOooooooooo..            ",
" ..+.+.oOOOOOOOoooooOOooooooo..XXXXX.oOooooooOOoooo.            ",
"..+..+.oooooooooOOOoooooooooo.XXXXX.ooooOOOOOOoooooo.           ",
"...+.+..ooooooOOOooooOOOOOooo.XXXX.oooOOOoooooooooooo.          ",
"@.+..++.oooOOOOoooooOOoooooo.XXXX.ooOOoooooooooooooooo..        ",
"@.+..++.ooooooooooOOoooooooo.XXX.ooOOooooooooooooooooooo..      ",
" @.++.++.ooooooOOOOoooooooo.XXXX..ooooOOOOoooooooooOooooo..     ",
" @..+.+...oooOOoooooOoooooo.XXXX..oooOooooooooOOOOOOooooo.      ",
" @@.+.+.+..ooooooOOOoooOOoo.XXXX...oOOooooOOOOoooooooooo..      ",
"  @.++.+.+..oooOOOoooOOoooo.XXXX.o.ooooOOOoooooooooooo..+....   ",
"  @@.+.+..+..ooooooOOoooooo.XXXX.o.ooooOooooooooooooo..+++...   ",
"   @.+.++..+..oooOOooooOOoo......oo.ooOOooooooooooo...+++..     ",
"   @+.+.++..+..oooooooOOooooooooooo.ooOooooo.......++++..+...@@ ",
"   @@.+.+++.++..ooooOOoooooooo.oooo..ooooo...+++++++...+++++.@@ ",
"    @@.+.++..++..oooOooooooo..X..ooo.oooo..++++++....+++++.@@@  ",
"     @.+..++.+++.oooooooooo.XXXXX.oo..oo..+.......++++...@@@    ",
"     @@.+..++.+++.ooooo....XXXXXXX.oo.o...............@@@@      ",
"      @.++.+++.++.oo...+++.XXXXXXX.........@@@@@@@@@@@          ",
"      @@.++.++.++.o..++++++.XXXXXX........@@                    ",
"       @.++..++.+...++......XXXXX.@@@@@@..@                     ",
"       @@@++.+++.+.+...++..@..X..@@@@@...@                      ",
"         @.++.+++...+....@@@  . @@.....@@                       ",
"         @@.+.....+...+@@@       @@@@@@                         ",
"          @@.++....+@@@@                                        ",
"           @@....+@@@                                           ",
"            @@+@@@@                                             ",
"             @@@                                                ",
"                                                                "};
