/* XPM */
static char * watchred_xpm[] = {
"32 24 3 1",
" 	c none",
".	c yellow",
"X	c #000000000000",
"                                ",
"      ....                      ",
"     ......                     ",
"  ............................  ",
" ..............................X",
" ..............................X",
" ..............................X",
" ..............................X",
" ..............................X",
" ..............................X",
" ..............................X",
" ..............................X",
" ..............................X",
" ..............................X",
" ..............................X",
" ..............................X",
" ..............................X",
" ..............................X",
" ..............................X",
" ..............................X",
" ..............................X",
" ..............................X",
" ..............................X",
" XXXXXXXXXXXXXXXXXXXXXXXXXXXXXXX"};
