/* XPM */
static char * weather_xpm[] = {
/* width height num_colors chars_per_pixel */
"40 40 8 1",
/* colors */
" 	c #cf9a30",
".	c #843c24",
"X	c #843c24",
"o	c #87ceff",
"O	c #ffff00",
"+	c #000000",
"@	c #ffffff",
"#	c #c0c0c0",
/* pixels */
"                                       .",
"                                      ..",
"  XXXXXXXXXXXXXXXXXXXXXXXXXXXXXXXXXXXX..",
"  X................................. X..",
"  X.oooooooooooooooooooooooooooooooo X..",
"  X.ooooooOOooooooooooOOoooooooooooo X..",
"  X.oooooooOoooo++ooooOooooooooooooo X..",
"  X.ooooooooOoo+OO+ooOoooooooooooooo X..",
"  X.oooooooooo++++++oooooooooooooooo X..",
"  X.ooooo+++++OOOOOO+++++ooooooooooo X..",
"  X.oOooo+O+OOOOOOOOOO+O+oooOooooooo X..",
"  X.oOOoo++OOOOOOOOOOOO++ooOOooooooo X..",
"  X.oooOo+OOOOOOOOOOOOOO+oOooooooooo X..",
"  X.ooooo+OOOOOOOOOOOOOO+ooooooooooo X..",
"  X.oooo+OOOOOOOOOOOOOOOO+oooooooooo X..",
"  X.ooo++OOOOOOOOOOOOOOOO++ooooooooo X..",
"  X.oo+O+OOOOOOOOOOOOOOOO+O+oooooooo X..",
"  X.oo+O+OOOOOOOOOOOOOOOO+O+oooooooo X..",
"  X.ooo++OOOOOOOOOOOOOOOO++ooooooooo X..",
"  X.oooo+OOOOOOOOOOO+++OO+oo++oooooo X..",
"  X.ooooo+OOOOOOOOO++@@++o++@@++oooo X..",
"  X.oooOo+OOOO+++++@@@@@@+@@@@@+oooo X..",
"  X.oOOoo++OO+@@@@@@@@@@@@@##@@@+ooo X..",
"  X.oOooo+O+++@@@@@@@@@@@@#@@#@@+ooo X..",
"  X.ooooo++++@@@@@@@@@@@@@@@@@@@#+oo X..",
"  X.oooooooo+@@@@@@@#@@@@@#@@@@##+oo X..",
"  X.oooooooo+@@@@@@@@#@#@@@@@@@@#+oo X..",
"  X.oooooooo+@@#@@@@@@@@@@@#@@###+oo X..",
"  X.oooooooo+@@@@@#@@@@@@@@@@##@#+oo X..",
"  X.ooooooooo+#@@@@@##@##@###@##+ooo X..",
"  X.ooooooooo+#@@@###@#######@##+ooo X..",
"  X.oooooooooo+#@##@###++++####+oooo X..",
"  X.ooooooooooo+#@####++ooo+###+oooo X..",
"  X.oooooooooooo+++++++ooooo+++ooooo X..",
"  X.oooooooooooooooooooooooooooooooo X..",
"  X.oooooooooooooooooooooooooooooooo X..",
"  X                                  X..",
"  XXXXXXXXXXXXXXXXXXXXXXXXXXXXXXXXXXXX..",
" .......................................",
"........................................"};
