/* XPM */
static char * Webster_xpm[] = {
/* width height num_colors chars_per_pixel */
"42 27 4 1",
/* colors */
" 	s None	c None",
".	c #ce0000",
"X	c #808080",
"o	c #ffffff",
/* pixels */
"                                          ",
"                       ....               ",
"                    .........             ",
"                 ..............           ",
"               ..................         ",
"            .......................       ",
"         ............................     ",
"      ..................................  ",
"    ....................................  ",
" .....................................XX  ",
" ...................................XXXo  ",
" .X...............................Xooooo  ",
" .XXX...........................Xooooooo  ",
" .XXXX........................XoXoooooo.  ",
"  .XXXX....................Xooooooooo..   ",
"  X.XXXXX................Xooooooooo...    ",
"   X.XXXXX.............XooooXoooo..       ",
"    X.XXXXX..........Xooooooooo..         ",
"     X.XXXXX.......XoooooXooo..           ",
"       .XXXXXX...XoooooXooo..             ",
"        ..XXXXXXooooooooo..               ",
"         X.XXXXXooooXoo..                 ",
"          X.XXXXooooo...                  ",
"            .XXXooo..                     ",
"             .XXo...                      ",
"              ....                        ",
"               .                          "};
