/* XPM */
static char * www_xpm[] = {
/* width height num_colors chars_per_pixel */
"31 31 9 1",
/* colors */
" 	s None	c None",
".	c #000055",
"X	c #000000",
"o	c #00aa00",
"O	c #0000aa",
"+	c #0000aa",
"@	c #00aa00",
"#	c #0000ff",
"$	c #7fff00",
/* pixels */
"            ..X.XX.            ",
"         oooo.......X.         ",
"       oooO.O.........XX       ",
"      ..ooOOOOO.oooo...XX      ",
"     .O+O@oOOOoOo.ooo....X     ",
"    .OO+@o@@o+ooooOoo....XX    ",
"   OO+++@+@@@@@@oooO.....X.X   ",
"  OO++++++@@@@o@OOooO.....XX.  ",
"  O++++++#@@@@@@++ooo.....X..  ",
" OO++###+#$@@@@@o@ooO......X.. ",
" O++#+#+##@$$@@+@@oooOO.....XX ",
" O+#+####+$@@$@@@o@oOO......X. ",
"O+#+###+##$$$@@@@@@oO.O....X.XX",
"O++#######$@$@$@@o@oOOO.....X..",
"O+#+#######$@$@@@@@OOOO......X.",
"O+#########$$@$@@+o+OO......XX.",
"O+#+#######$@$@++++OOOOO.....X.",
"O+###+#####+#@$+++O+OO......X.X",
"O+++#########$@+@++OOOO.....X.X",
" +#######+#+#++#@@@OOOOo....X. ",
" +++#+#+####+#++++oOoooooo.X.X ",
" O++#####+#+#+++++O+oooooooX.. ",
"  +++++#+#+#++++O+OOooooooooX  ",
"  O++#+#+#+#+++++OOOoooooooX.  ",
"   O++++#+++++++O+OOooooooX.   ",
"    O++++++++++O+OOOooooooX    ",
"     +O+++++O+OOOOO...ooo.     ",
"      OOO+O+OOOOO....oooX      ",
"       OOOOOOOOO.O...oo.       ",
"         .OOOO..O...o.         ",
"            .......            "};
